<svg width="78" height="81" viewBox="0 0 78 81" fill="none" xmlns="http://www.w3.org/2000/svg">
<g filter="url(#filter0_d_102_11)">
<rect x="14" y="10.75" width="50.25" height="53.25" rx="15" fill="#8BA969"/>
</g>
<path d="M50.4679 33.0167H46.8994L46.1389 28.347C45.9857 27.6404 45.6491 26.9897 45.1651 26.464C44.681 25.9382 44.0674 25.557 43.3894 25.3607C42.7083 25.1355 41.9988 25.014 41.2834 25H36.9154C36.2001 25.014 35.4905 25.1355 34.8094 25.3607C34.1315 25.557 33.5179 25.9382 33.0338 26.464C32.5497 26.9897 32.2131 27.6404 32.0599 28.347L31.2994 33.0167H27.7309C27.5773 33.0157 27.4257 33.0521 27.2884 33.1227C27.151 33.1934 27.0319 33.2965 26.9407 33.4235C26.8494 33.5504 26.7887 33.6978 26.7634 33.8535C26.738 34.0092 26.7488 34.1688 26.7949 34.3194L30.4609 46.9456C30.6476 47.5556 31.0186 48.0885 31.52 48.4669C32.0215 48.8454 32.6273 49.0496 33.2494 49.05H44.9494C45.5682 49.0454 46.1696 48.8392 46.6672 48.461C47.1647 48.0829 47.5328 47.5523 47.7184 46.9456L51.3844 34.3194C51.43 34.1704 51.4411 34.0125 51.4168 33.8584C51.3925 33.7042 51.3335 33.558 51.2444 33.4315C51.1554 33.3049 51.0388 33.2015 50.904 33.1295C50.7692 33.0575 50.6198 33.0188 50.4679 33.0167ZM33.2884 33.0167L33.9904 28.6676C34.0674 28.3125 34.2459 27.9892 34.503 27.7392C34.7602 27.4892 35.0842 27.324 35.4334 27.2647C35.9131 27.1084 36.4123 27.0222 36.9154 27.0042H41.2834C41.7924 27.0202 42.2974 27.1064 42.7849 27.2647C43.1341 27.324 43.4582 27.4892 43.7153 27.7392C43.9724 27.9892 44.151 28.3125 44.2279 28.6676L44.9104 33.0167H33.2104H33.2884Z" fill="white"/>
<defs>
<filter id="filter0_d_102_11" x="0.500001" y="0.250001" width="77.25" height="80.25" filterUnits="userSpaceOnUse" color-interpolation-filters="sRGB">
<feFlood flood-opacity="0" result="BackgroundImageFix"/>
<feColorMatrix in="SourceAlpha" type="matrix" values="0 0 0 0 0 0 0 0 0 0 0 0 0 0 0 0 0 0 127 0" result="hardAlpha"/>
<feOffset dy="3"/>
<feGaussianBlur stdDeviation="6.75"/>
<feComposite in2="hardAlpha" operator="out"/>
<feColorMatrix type="matrix" values="0 0 0 0 0 0 0 0 0 0 0 0 0 0 0 0 0 0 0.05 0"/>
<feBlend mode="normal" in2="BackgroundImageFix" result="effect1_dropShadow_102_11"/>
<feBlend mode="normal" in="SourceGraphic" in2="effect1_dropShadow_102_11" result="shape"/>
</filter>
</defs>
</svg>
