<svg width="154" height="160" viewBox="0 0 154 160" fill="none" xmlns="http://www.w3.org/2000/svg">
<g filter="url(#filter0_d_162_13)">
<rect x="27" y="21.2139" width="99.7328" height="105.687" rx="29.771" fill="#8BA969"/>
</g>
<path d="M75.5 81.45C77.6465 81.45 79.475 80.655 81.0915 79.0915C82.655 77.475 83.45 75.6465 83.45 73.5C83.45 71.3535 82.655 69.525 81.0915 67.9085C79.475 66.345 77.6465 65.55 75.5 65.55C73.3535 65.55 71.525 66.345 69.9085 67.9085C68.345 69.525 67.55 71.3535 67.55 73.5C67.55 75.6465 68.345 77.475 69.9085 79.0915C71.525 80.655 73.3535 81.45 75.5 81.45ZM75.5 47C82.7875 47 89.015 49.65 94.1825 54.8175C99.35 59.985 102 66.2125 102 73.5V77.3425C102 79.9925 101.073 82.245 99.35 84.1C97.495 85.8755 95.375 86.75 92.725 86.75C89.545 86.75 86.9215 85.425 84.934 82.775C82.284 85.425 79.157 86.75 75.5 86.75C71.8695 86.75 68.7425 85.425 66.119 82.881C63.575 80.2575 62.25 77.157 62.25 73.5C62.25 69.8695 63.575 66.7425 66.119 64.119C68.7425 61.575 71.8695 60.25 75.5 60.25C79.157 60.25 82.2575 61.575 84.881 64.119C87.425 66.7425 88.75 69.8695 88.75 73.5V77.3425C88.75 78.429 89.174 79.383 89.969 80.2045C90.764 81.026 91.6915 81.45 92.725 81.45C93.838 81.45 94.7655 81.026 95.5605 80.2045C96.3555 79.383 96.7 78.429 96.7 77.3425V73.5C96.7 67.6965 94.6595 62.7145 90.4725 58.5275C86.2855 54.3405 81.3035 52.3 75.5 52.3C69.6965 52.3 64.7145 54.3405 60.5275 58.5275C56.3405 62.7145 54.3 67.6965 54.3 73.5C54.3 79.3035 56.3405 84.2855 60.5275 88.4725C64.7145 92.6595 69.6965 94.7 75.5 94.7H88.75V100H75.5C68.2125 100 61.985 97.35 56.8175 92.1825C51.65 87.015 49 80.7875 49 73.5C49 66.2125 51.65 59.985 56.8175 54.8175C61.985 49.65 68.2125 47 75.5 47Z" fill="white"/>
<defs>
<filter id="filter0_d_162_13" x="0.2061" y="0.374168" width="153.321" height="159.275" filterUnits="userSpaceOnUse" color-interpolation-filters="sRGB">
<feFlood flood-opacity="0" result="BackgroundImageFix"/>
<feColorMatrix in="SourceAlpha" type="matrix" values="0 0 0 0 0 0 0 0 0 0 0 0 0 0 0 0 0 0 127 0" result="hardAlpha"/>
<feOffset dy="5.9542"/>
<feGaussianBlur stdDeviation="13.3969"/>
<feComposite in2="hardAlpha" operator="out"/>
<feColorMatrix type="matrix" values="0 0 0 0 0 0 0 0 0 0 0 0 0 0 0 0 0 0 0.05 0"/>
<feBlend mode="normal" in2="BackgroundImageFix" result="effect1_dropShadow_162_13"/>
<feBlend mode="normal" in="SourceGraphic" in2="effect1_dropShadow_162_13" result="shape"/>
</filter>
</defs>
</svg>
