<svg width="28" height="36" viewBox="0 0 28 36" fill="none" xmlns="http://www.w3.org/2000/svg">
<path fill-rule="evenodd" clip-rule="evenodd" d="M13.2396 0.507125C9.9382 0.814881 7.25491 1.99857 4.97687 4.15217C3.19141 5.84014 1.92681 7.96407 1.33657 10.2661C1.01164 11.5334 0.926327 12.3497 0.963314 13.8361C1.02193 16.1892 1.38229 17.4589 2.73961 20.0949C4.76354 24.0255 7.74293 28.4138 11.5502 33.0718C13.1059 34.9752 13.5992 35.5305 13.864 35.6767C14.4128 35.9795 14.5569 35.8535 16.8068 33.1023C19.6139 29.6698 22.2495 25.976 24.1647 22.7902C25.1714 21.1157 26.4562 18.5563 26.7855 17.5694C27.2473 16.1854 27.379 15.4083 27.4181 13.8361C27.4447 12.7695 27.426 12.3034 27.3325 11.697C26.8926 8.84414 25.7056 6.46931 23.7118 4.45282C21.6797 2.39755 19.1437 1.10297 16.2338 0.635403C15.6304 0.538453 13.7622 0.458409 13.2396 0.507125ZM15.5042 6.85463C18.3748 7.43543 20.524 9.61587 20.988 12.4185C21.1222 13.2284 21.1222 13.7212 20.988 14.531C20.4434 17.8201 17.588 20.2026 14.1907 20.2026C10.7935 20.2026 7.93801 17.8201 7.39342 14.531C7.25928 13.7212 7.25928 13.2284 7.39342 12.4185C7.85622 9.6234 9.97477 7.46655 12.8592 6.85366C13.4819 6.72138 14.8479 6.72186 15.5042 6.85463Z" fill="#8BA969"/>
</svg>
