<svg width="154" height="160" viewBox="0 0 154 160" fill="none" xmlns="http://www.w3.org/2000/svg">
<g filter="url(#filter0_d_162_12)">
<rect x="27" y="21" width="99.7328" height="105.687" rx="29.771" fill="#8BA969"/>
</g>
<path fill-rule="evenodd" clip-rule="evenodd" d="M74.5929 38.0294C67.9835 38.6455 62.6117 41.0152 58.0511 45.3267C54.4767 48.706 51.945 52.958 50.7633 57.5666C50.1128 60.1038 49.942 61.738 50.0161 64.7136C50.1334 69.4246 50.8548 71.9664 53.5722 77.2436C57.624 85.1125 63.5887 93.8978 71.2107 103.223C74.3252 107.034 75.3128 108.145 75.843 108.438C76.9415 109.044 77.23 108.792 81.7343 103.284C87.354 96.4124 92.6305 89.0174 96.4646 82.6396C98.4799 79.2873 101.052 74.1633 101.711 72.1877C102.636 69.417 102.899 67.8612 102.978 64.7136C103.031 62.5783 102.994 61.6452 102.807 60.4312C101.926 54.7199 99.5495 49.9656 95.558 45.9286C91.4897 41.814 86.4127 39.2223 80.5872 38.2862C79.3792 38.0921 75.6392 37.9319 74.5929 38.0294ZM79.1264 50.7369C84.8735 51.8997 89.176 56.2649 90.105 61.8757C90.3735 63.497 90.3735 64.4836 90.105 66.1048C89.0147 72.6894 83.2982 77.4593 76.497 77.4593C69.6958 77.4593 63.9792 72.6894 62.889 66.1048C62.6204 64.4836 62.6204 63.497 62.889 61.8757C63.8155 56.2799 68.0567 51.962 73.8313 50.735C75.078 50.4702 77.8126 50.4712 79.1264 50.7369Z" fill="white"/>
<defs>
<filter id="filter0_d_162_12" x="0.2061" y="0.160301" width="153.321" height="159.275" filterUnits="userSpaceOnUse" color-interpolation-filters="sRGB">
<feFlood flood-opacity="0" result="BackgroundImageFix"/>
<feColorMatrix in="SourceAlpha" type="matrix" values="0 0 0 0 0 0 0 0 0 0 0 0 0 0 0 0 0 0 127 0" result="hardAlpha"/>
<feOffset dy="5.9542"/>
<feGaussianBlur stdDeviation="13.3969"/>
<feComposite in2="hardAlpha" operator="out"/>
<feColorMatrix type="matrix" values="0 0 0 0 0 0 0 0 0 0 0 0 0 0 0 0 0 0 0.05 0"/>
<feBlend mode="normal" in2="BackgroundImageFix" result="effect1_dropShadow_162_12"/>
<feBlend mode="normal" in="SourceGraphic" in2="effect1_dropShadow_162_12" result="shape"/>
</filter>
</defs>
</svg>
