<svg width="154" height="160" viewBox="0 0 154 160" fill="none" xmlns="http://www.w3.org/2000/svg">
<g filter="url(#filter0_d_162_10)">
<rect x="27" y="21.2139" width="99.7328" height="105.687" rx="29.771" fill="#8BA969"/>
</g>
<path fill-rule="evenodd" clip-rule="evenodd" d="M73.689 46.6364C70.2862 46.9639 67.2732 47.8266 64.1992 49.3534C61.4808 50.7036 59.4844 52.137 57.2415 54.3491C55.087 56.4739 53.5385 58.6189 52.1559 61.3932C48.8805 67.9658 48.4345 75.424 50.9015 82.3725C51.8167 84.9506 53.6507 88.2003 55.3346 90.2281C57.8517 93.2593 60.7545 95.5702 64.1992 97.2853C68.2868 99.3206 72.6294 100.265 77.0744 100.085C81.0662 99.924 84.5326 99.0415 88.0643 97.2873C92.3149 95.176 95.8489 92.0559 98.4908 88.0819C99.4006 86.7135 100.763 84.0255 101.323 82.4959C103.154 77.4888 103.418 71.7272 102.055 66.5475C101.543 64.6015 101.089 63.4041 100.118 61.4378C98.7587 58.6851 97.3255 56.6814 95.1116 54.4387C89.546 48.8007 81.5309 45.8816 73.689 46.6364ZM66.8816 59.4012C67.217 59.526 72.2954 64.5334 72.5251 64.9659C72.8861 65.6455 72.8124 65.7703 70.9092 67.7043C69.9378 68.6915 69.0652 69.6514 68.9698 69.8375C68.5707 70.6167 68.6536 71.5544 69.1924 72.3557C70.9414 74.9568 75.5475 79.4041 77.6705 80.5414C78.1554 80.8012 79.1085 80.8251 79.67 80.5915C79.9092 80.492 80.7263 79.7679 81.7877 78.715C83.5418 76.9748 83.8124 76.7884 84.38 76.9281C84.7393 77.0166 89.8806 82.1078 90.1202 82.6124C90.4413 83.289 90.0853 83.8537 88.4202 85.3088C86.642 86.8627 84.6624 87.5232 82.6209 87.2438C79.8885 86.8698 75.4006 84.6436 72.1516 82.0506C70.9359 81.0803 67.9569 78.0935 66.9945 76.8799C64.825 74.1442 62.9328 70.6626 62.2456 68.1423C61.8023 66.5168 61.9907 64.8151 62.7965 63.1652C63.2334 62.2705 63.4184 62.0319 64.6396 60.7891C65.3863 60.0293 66.0975 59.3879 66.2202 59.3638C66.3429 59.3398 66.4756 59.3137 66.5151 59.3058C66.5545 59.298 66.7195 59.3409 66.8816 59.4012Z" fill="white"/>
<defs>
<filter id="filter0_d_162_10" x="0.2061" y="0.374168" width="153.321" height="159.275" filterUnits="userSpaceOnUse" color-interpolation-filters="sRGB">
<feFlood flood-opacity="0" result="BackgroundImageFix"/>
<feColorMatrix in="SourceAlpha" type="matrix" values="0 0 0 0 0 0 0 0 0 0 0 0 0 0 0 0 0 0 127 0" result="hardAlpha"/>
<feOffset dy="5.9542"/>
<feGaussianBlur stdDeviation="13.3969"/>
<feComposite in2="hardAlpha" operator="out"/>
<feColorMatrix type="matrix" values="0 0 0 0 0 0 0 0 0 0 0 0 0 0 0 0 0 0 0.05 0"/>
<feBlend mode="normal" in2="BackgroundImageFix" result="effect1_dropShadow_162_10"/>
<feBlend mode="normal" in="SourceGraphic" in2="effect1_dropShadow_162_10" result="shape"/>
</filter>
</defs>
</svg>
