<svg width="86" height="89" viewBox="0 0 86 89" fill="none" xmlns="http://www.w3.org/2000/svg">
<g filter="url(#filter0_d_102_10)">
<rect x="15" y="12" width="55.2366" height="58.5344" rx="16.4886" fill="#8BA969"/>
</g>
<path fill-rule="evenodd" clip-rule="evenodd" d="M40.8584 26.0804C38.9738 26.2618 37.305 26.7395 35.6025 27.5852C34.0969 28.333 32.9912 29.1269 31.749 30.352C30.5558 31.5288 29.6981 32.7169 28.9324 34.2534C27.1183 37.8936 26.8713 42.0243 28.2376 45.8727C28.7445 47.3005 29.7603 49.1004 30.6929 50.2235C32.087 51.9023 33.6947 53.1822 35.6025 54.1321C37.8664 55.2593 40.2716 55.7823 42.7334 55.6828C44.9442 55.5935 46.8641 55.1047 48.8201 54.1332C51.1743 52.9638 53.1316 51.2358 54.5948 49.0348C55.0986 48.2769 55.8533 46.7882 56.1632 45.941C57.1773 43.1678 57.3239 39.9768 56.5688 37.1081C56.2852 36.0303 56.0338 35.3671 55.496 34.2781C54.7431 32.7535 53.9493 31.6438 52.7232 30.4016C49.6407 27.2791 45.2016 25.6623 40.8584 26.0804ZM37.0882 33.1501C37.2739 33.2192 40.0866 35.9926 40.2138 36.2321C40.4137 36.6085 40.3729 36.6776 39.3188 37.7488C38.7808 38.2955 38.2975 38.8271 38.2447 38.9302C38.0236 39.3618 38.0696 39.8811 38.368 40.3249C39.3366 41.7655 41.8877 44.2286 43.0635 44.8585C43.3321 45.0024 43.86 45.0156 44.171 44.8863C44.3034 44.8311 44.756 44.4301 45.3438 43.847C46.3153 42.8832 46.4652 42.7799 46.7795 42.8573C46.9786 42.9063 49.826 45.7261 49.9587 46.0055C50.1366 46.3803 49.9394 46.693 49.0172 47.499C48.0324 48.3595 46.936 48.7254 45.8053 48.5706C44.292 48.3635 41.8064 47.1305 40.0069 45.6944C39.3336 45.157 37.6837 43.5027 37.1506 42.8306C35.9491 41.3154 34.9011 39.3872 34.5205 37.9913C34.275 37.0911 34.3793 36.1486 34.8256 35.2348C35.0676 34.7393 35.1701 34.6071 35.8464 33.9188C36.26 33.498 36.6538 33.1428 36.7218 33.1294C36.7898 33.1161 36.8633 33.1016 36.8851 33.0973C36.907 33.0929 36.9984 33.1167 37.0882 33.1501Z" fill="white"/>
<defs>
<filter id="filter0_d_102_10" x="0.160305" y="0.458015" width="84.916" height="88.2138" filterUnits="userSpaceOnUse" color-interpolation-filters="sRGB">
<feFlood flood-opacity="0" result="BackgroundImageFix"/>
<feColorMatrix in="SourceAlpha" type="matrix" values="0 0 0 0 0 0 0 0 0 0 0 0 0 0 0 0 0 0 127 0" result="hardAlpha"/>
<feOffset dy="3.29771"/>
<feGaussianBlur stdDeviation="7.41985"/>
<feComposite in2="hardAlpha" operator="out"/>
<feColorMatrix type="matrix" values="0 0 0 0 0 0 0 0 0 0 0 0 0 0 0 0 0 0 0.05 0"/>
<feBlend mode="normal" in2="BackgroundImageFix" result="effect1_dropShadow_102_10"/>
<feBlend mode="normal" in="SourceGraphic" in2="effect1_dropShadow_102_10" result="shape"/>
</filter>
</defs>
</svg>
