<svg width="52" height="55" viewBox="0 0 52 55" fill="none" xmlns="http://www.w3.org/2000/svg">
<g filter="url(#filter0_d_137_10)">
<rect x="8.54578" y="7.14795" width="35.2646" height="37.37" rx="8.81225" fill="white"/>
</g>
<path fill-rule="evenodd" clip-rule="evenodd" d="M25.0551 16.1372C23.8519 16.253 22.7865 16.558 21.6995 17.0979C20.7383 17.5753 20.0325 18.0822 19.2394 18.8643C18.4776 19.6157 17.93 20.3741 17.4412 21.3551C16.283 23.6791 16.1253 26.3162 16.9976 28.7732C17.3212 29.6847 17.9697 30.8338 18.5651 31.5508C19.4552 32.6226 20.4815 33.4398 21.6995 34.0462C23.1449 34.7659 24.6804 35.0998 26.2521 35.0362C27.6636 34.9792 28.8893 34.6672 30.138 34.0469C31.641 33.3003 32.8906 32.1971 33.8248 30.792C34.1464 30.3081 34.6282 29.3576 34.8261 28.8168C35.4735 27.0463 35.5671 25.0091 35.085 23.1776C34.9039 22.4895 34.7435 22.0661 34.4001 21.3708C33.9195 20.3975 33.4127 19.689 32.6299 18.896C30.662 16.9025 27.8279 15.8703 25.0551 16.1372ZM22.648 20.6507C22.7666 20.6948 24.5623 22.4654 24.6435 22.6183C24.7711 22.8586 24.7451 22.9028 24.0722 23.5866C23.7287 23.9357 23.4201 24.2751 23.3864 24.3409C23.2453 24.6164 23.2746 24.948 23.4651 25.2313C24.0835 26.151 25.7122 27.7236 26.4629 28.1257C26.6343 28.2176 26.9714 28.226 27.1699 28.1434C27.2545 28.1082 27.5434 27.8522 27.9187 27.4799C28.5389 26.8646 28.6346 26.7987 28.8353 26.8481C28.9624 26.8794 30.7803 28.6795 30.865 28.858C30.9785 29.0972 30.8527 29.2969 30.2639 29.8114C29.6351 30.3608 28.9352 30.5944 28.2133 30.4956C27.2472 30.3634 25.6603 29.5762 24.5115 28.6593C24.0816 28.3163 23.0282 27.2601 22.6879 26.831C21.9208 25.8637 21.2518 24.6326 21.0088 23.7415C20.852 23.1667 20.9187 22.565 21.2036 21.9816C21.358 21.6653 21.4235 21.5809 21.8553 21.1415C22.1193 20.8728 22.3708 20.646 22.4142 20.6375C22.4575 20.629 22.5045 20.6198 22.5184 20.617C22.5324 20.6142 22.5907 20.6294 22.648 20.6507Z" fill="#8BA969"/>
<defs>
<filter id="filter0_d_137_10" x="0.614754" y="0.979377" width="51.1267" height="53.2322" filterUnits="userSpaceOnUse" color-interpolation-filters="sRGB">
<feFlood flood-opacity="0" result="BackgroundImageFix"/>
<feColorMatrix in="SourceAlpha" type="matrix" values="0 0 0 0 0 0 0 0 0 0 0 0 0 0 0 0 0 0 127 0" result="hardAlpha"/>
<feOffset dy="1.76245"/>
<feGaussianBlur stdDeviation="3.96551"/>
<feComposite in2="hardAlpha" operator="out"/>
<feColorMatrix type="matrix" values="0 0 0 0 0 0 0 0 0 0 0 0 0 0 0 0 0 0 0.05 0"/>
<feBlend mode="normal" in2="BackgroundImageFix" result="effect1_dropShadow_137_10"/>
<feBlend mode="normal" in="SourceGraphic" in2="effect1_dropShadow_137_10" result="shape"/>
</filter>
</defs>
</svg>
